<svg width="32" height="32" viewBox="0 0 32 32" fill="none" xmlns="http://www.w3.org/2000/svg">
<path d="M15.0853 4.16133C15.7015 3.52943 16.437 3.02617 17.2492 2.68074C18.0614 2.33531 18.9341 2.15459 19.8166 2.14906C20.6992 2.14353 21.5741 2.3133 22.3905 2.64852C23.207 2.98375 23.9487 3.47775 24.5728 4.10188C25.1968 4.72601 25.6907 5.46784 26.0258 6.28433C26.3609 7.10083 26.5306 7.97574 26.5249 8.85831C26.5193 9.74088 26.3384 10.6135 25.9929 11.4257C25.6473 12.2378 25.144 12.9732 24.512 13.5893L14.1427 23.96C13.7724 24.3364 13.3312 24.6358 12.8447 24.8409C12.3581 25.046 11.8358 25.1528 11.3077 25.155C10.7797 25.1572 10.2565 25.0549 9.7682 24.8538C9.27993 24.6528 8.83629 24.3571 8.46288 23.9838C8.08946 23.6105 7.79365 23.1669 7.59252 22.6787C7.39139 22.1905 7.28891 21.6672 7.291 21.1392C7.29309 20.6112 7.3997 20.0888 7.60469 19.6022C7.80967 19.1156 8.10897 18.6744 8.48533 18.304L18.856 7.93333L20.7413 9.81866L10.3707 20.1893C10.2433 20.3123 10.1417 20.4594 10.0719 20.6221C10.002 20.7848 9.9652 20.9598 9.96366 21.1368C9.96213 21.3138 9.99586 21.4894 10.0629 21.6533C10.1299 21.8171 10.2289 21.966 10.3541 22.0912C10.4793 22.2164 10.6282 22.3154 10.7921 22.3824C10.9559 22.4495 11.1315 22.4832 11.3085 22.4817C11.4856 22.4801 11.6605 22.4433 11.8232 22.3735C11.9859 22.3036 12.133 22.202 12.256 22.0747L22.628 11.704C22.9995 11.3325 23.2941 10.8915 23.4952 10.4062C23.6962 9.92085 23.7997 9.40066 23.7997 8.87533C23.7997 8.34999 23.6962 7.82981 23.4952 7.34446C23.2941 6.85912 22.9995 6.41813 22.628 6.04666C22.2565 5.67519 21.8155 5.38053 21.3302 5.1795C20.8449 4.97846 20.3247 4.87499 19.7993 4.87499C19.274 4.87499 18.7538 4.97846 18.2685 5.1795C17.7831 5.38053 17.3421 5.67519 16.9707 6.04666L6.6 16.4187C5.38561 17.676 4.71365 19.36 4.72884 21.108C4.74403 22.856 5.44515 24.5281 6.68121 25.7641C7.91726 27.0002 9.58934 27.7013 11.3373 27.7165C13.0853 27.7317 14.7693 27.0597 16.0267 25.8453L27.3413 14.532L29.2267 16.4187L17.9133 27.732C16.1629 29.4824 13.7888 30.4658 11.3133 30.4658C8.83785 30.4658 6.46376 29.4824 4.71333 27.732C2.9629 25.9816 1.97952 23.6075 1.97952 21.132C1.97952 18.6565 2.9629 16.2824 4.71333 14.532L15.0853 4.16133Z" fill="#63616C"/>
</svg>
