<svg width="48" height="48" viewBox="0 0 48 48" fill="none" xmlns="http://www.w3.org/2000/svg">
<path d="M15 12C15 9.61305 15.9482 7.32387 17.636 5.63604C19.3239 3.94821 21.6131 3 24 3C26.3869 3 28.6761 3.94821 30.364 5.63604C32.0518 7.32387 33 9.61305 33 12C33 17.2845 30.021 24.804 28.26 28.785C27.519 30.465 25.8405 31.5 24 31.5C22.1595 31.5 20.4825 30.465 19.74 28.785C17.9775 24.804 15 17.283 15 12ZM24 45C25.3924 45 26.7277 44.4469 27.7123 43.4623C28.6969 42.4777 29.25 41.1424 29.25 39.75C29.25 38.3576 28.6969 37.0223 27.7123 36.0377C26.7277 35.0531 25.3924 34.5 24 34.5C22.6076 34.5 21.2723 35.0531 20.2877 36.0377C19.3031 37.0223 18.75 38.3576 18.75 39.75C18.75 41.1424 19.3031 42.4777 20.2877 43.4623C21.2723 44.4469 22.6076 45 24 45Z" fill="#EBA33E"/>
</svg>
