<svg width="24" height="25" viewBox="0 0 24 25" fill="none" xmlns="http://www.w3.org/2000/svg">
<path d="M7.74998 3C7.74998 2.80109 7.67096 2.61032 7.53031 2.46967C7.38966 2.32902 7.19889 2.25 6.99998 2.25C6.80107 2.25 6.6103 2.32902 6.46965 2.46967C6.329 2.61032 6.24998 2.80109 6.24998 3V4.58C4.80998 4.695 3.86598 4.977 3.17198 5.672C2.47698 6.366 2.19498 7.311 2.07898 8.75H21.921C21.805 7.31 21.523 6.366 20.828 5.672C20.134 4.977 19.189 4.695 17.75 4.579V3C17.75 2.80109 17.671 2.61032 17.5303 2.46967C17.3897 2.32902 17.1989 2.25 17 2.25C16.8011 2.25 16.6103 2.32902 16.4696 2.46967C16.329 2.61032 16.25 2.80109 16.25 3V4.513C15.585 4.5 14.839 4.5 14 4.5H9.99998C9.16098 4.5 8.41498 4.5 7.74998 4.513V3Z" fill="#63616D"/>
<path fill-rule="evenodd" clip-rule="evenodd" d="M2 12.5C2 11.661 2 10.915 2.013 10.25H21.987C22 10.915 22 11.661 22 12.5V14.5C22 18.271 22 20.157 20.828 21.328C19.656 22.499 17.771 22.5 14 22.5H10C6.229 22.5 4.343 22.5 3.172 21.328C2.001 20.156 2 18.271 2 14.5V12.5ZM17 14.5C17.2652 14.5 17.5196 14.3946 17.7071 14.2071C17.8946 14.0196 18 13.7652 18 13.5C18 13.2348 17.8946 12.9804 17.7071 12.7929C17.5196 12.6054 17.2652 12.5 17 12.5C16.7348 12.5 16.4804 12.6054 16.2929 12.7929C16.1054 12.9804 16 13.2348 16 13.5C16 13.7652 16.1054 14.0196 16.2929 14.2071C16.4804 14.3946 16.7348 14.5 17 14.5ZM17 18.5C17.2652 18.5 17.5196 18.3946 17.7071 18.2071C17.8946 18.0196 18 17.7652 18 17.5C18 17.2348 17.8946 16.9804 17.7071 16.7929C17.5196 16.6054 17.2652 16.5 17 16.5C16.7348 16.5 16.4804 16.6054 16.2929 16.7929C16.1054 16.9804 16 17.2348 16 17.5C16 17.7652 16.1054 18.0196 16.2929 18.2071C16.4804 18.3946 16.7348 18.5 17 18.5ZM13 13.5C13 13.7652 12.8946 14.0196 12.7071 14.2071C12.5196 14.3946 12.2652 14.5 12 14.5C11.7348 14.5 11.4804 14.3946 11.2929 14.2071C11.1054 14.0196 11 13.7652 11 13.5C11 13.2348 11.1054 12.9804 11.2929 12.7929C11.4804 12.6054 11.7348 12.5 12 12.5C12.2652 12.5 12.5196 12.6054 12.7071 12.7929C12.8946 12.9804 13 13.2348 13 13.5ZM13 17.5C13 17.7652 12.8946 18.0196 12.7071 18.2071C12.5196 18.3946 12.2652 18.5 12 18.5C11.7348 18.5 11.4804 18.3946 11.2929 18.2071C11.1054 18.0196 11 17.7652 11 17.5C11 17.2348 11.1054 16.9804 11.2929 16.7929C11.4804 16.6054 11.7348 16.5 12 16.5C12.2652 16.5 12.5196 16.6054 12.7071 16.7929C12.8946 16.9804 13 17.2348 13 17.5ZM7 14.5C7.26522 14.5 7.51957 14.3946 7.70711 14.2071C7.89464 14.0196 8 13.7652 8 13.5C8 13.2348 7.89464 12.9804 7.70711 12.7929C7.51957 12.6054 7.26522 12.5 7 12.5C6.73478 12.5 6.48043 12.6054 6.29289 12.7929C6.10536 12.9804 6 13.2348 6 13.5C6 13.7652 6.10536 14.0196 6.29289 14.2071C6.48043 14.3946 6.73478 14.5 7 14.5ZM7 18.5C7.26522 18.5 7.51957 18.3946 7.70711 18.2071C7.89464 18.0196 8 17.7652 8 17.5C8 17.2348 7.89464 16.9804 7.70711 16.7929C7.51957 16.6054 7.26522 16.5 7 16.5C6.73478 16.5 6.48043 16.6054 6.29289 16.7929C6.10536 16.9804 6 17.2348 6 17.5C6 17.7652 6.10536 18.0196 6.29289 18.2071C6.48043 18.3946 6.73478 18.5 7 18.5Z" fill="#63616D"/>
</svg>
