<svg width="41" height="40" viewBox="0 0 41 40" fill="none" xmlns="http://www.w3.org/2000/svg">
<mask id="mask0_41_232" style="mask-type:luminance" maskUnits="userSpaceOnUse" x="2" y="4" width="37" height="32">
<path d="M12.1666 10.8333V7.49998C12.1666 7.05795 12.3422 6.63403 12.6548 6.32147C12.9673 6.00891 13.3913 5.83331 13.8333 5.83331H35.5C35.942 5.83331 36.3659 6.00891 36.6785 6.32147C36.991 6.63403 37.1666 7.05795 37.1666 7.49998V22.5C37.1666 22.942 36.991 23.3659 36.6785 23.6785C36.3659 23.991 35.942 24.1666 35.5 24.1666H33.8333" stroke="white" stroke-width="2" stroke-linecap="round" stroke-linejoin="round"/>
<path d="M27.1666 15.8333H5.49998C4.57951 15.8333 3.83331 16.5795 3.83331 17.5V32.5C3.83331 33.4205 4.57951 34.1666 5.49998 34.1666H27.1666C28.0871 34.1666 28.8333 33.4205 28.8333 32.5V17.5C28.8333 16.5795 28.0871 15.8333 27.1666 15.8333Z" fill="white" stroke="white" stroke-width="2" stroke-linecap="round" stroke-linejoin="round"/>
<path d="M3.83331 23.3333H28.8333" stroke="black" stroke-width="2" stroke-linecap="round" stroke-linejoin="round"/>
<path d="M28.8333 19.1666V29.1666M3.83331 19.1666V29.1666" stroke="white" stroke-width="2" stroke-linecap="round" stroke-linejoin="round"/>
<path d="M9.66663 28.3333H16.3333M21.3333 28.3333H23" stroke="black" stroke-width="2" stroke-linecap="round" stroke-linejoin="round"/>
</mask>
<g mask="url(#mask0_41_232)">
<path d="M0.5 0H40.5V40H0.5V0Z" fill="#0B69B7"/>
</g>
</svg>
