<svg width="24" height="24" viewBox="0 0 24 24" fill="none" xmlns="http://www.w3.org/2000/svg">
<path d="M5.21209 7.54541C5.21209 5.32322 7.02022 3.51509 9.24241 3.51509H16.9917C16.7125 2.53848 15.8224 1.81812 14.7576 1.81812H4.99997C3.71281 1.81812 2.66663 2.8643 2.66663 4.15146V17.303C2.66663 18.5902 3.71281 19.6364 4.99997 19.6364H5.21209V7.54541Z" fill="#0A3F69"/>
<path d="M19 5.21204H9.24242C7.95526 5.21204 6.90907 6.25822 6.90907 7.54538V19.8485C6.90907 21.1356 7.95526 22.1818 9.24242 22.1818H19C20.2872 22.1818 21.3334 21.1356 21.3334 19.8485V7.54538C21.3334 6.25822 20.2872 5.21204 19 5.21204ZM17.3031 19.6363H10.9394C10.5881 19.6363 10.303 19.3512 10.303 19C10.303 18.6487 10.5881 18.3636 10.9394 18.3636H17.3031C17.6543 18.3636 17.9394 18.6487 17.9394 19C17.9394 19.3512 17.6543 19.6363 17.3031 19.6363ZM17.3031 16.2424H10.9394C10.5881 16.2424 10.303 15.9573 10.303 15.606C10.303 15.2547 10.5881 14.9697 10.9394 14.9697H17.3031C17.6543 14.9697 17.9394 15.2547 17.9394 15.606C17.9394 15.9573 17.6543 16.2424 17.3031 16.2424ZM17.3031 13.2727H10.9394C10.5881 13.2727 10.303 12.9876 10.303 12.6363C10.303 12.285 10.5881 11.9999 10.9394 11.9999H17.3031C17.6543 11.9999 17.9394 12.285 17.9394 12.6363C17.9394 12.9876 17.6543 13.2727 17.3031 13.2727ZM17.3031 9.87872H10.9394C10.5881 9.87872 10.303 9.59363 10.303 9.24236C10.303 8.89108 10.5881 8.60599 10.9394 8.60599H17.3031C17.6543 8.60599 17.9394 8.89108 17.9394 9.24236C17.9394 9.59363 17.6543 9.87872 17.3031 9.87872Z" fill="#0A3F69"/>
</svg>
