<svg width="50" height="50" viewBox="0 0 50 50" fill="none" xmlns="http://www.w3.org/2000/svg">
<path d="M43.0833 14.6124C42.6207 13.6456 41.969 12.7814 41.1667 12.0707L34.9167 6.40405C33.541 5.14311 31.7943 4.36111 29.9375 4.17488H17.1042C15.7241 4.11636 14.3461 4.33291 13.0505 4.81193C11.7549 5.29094 10.5675 6.02286 9.55744 6.96509C8.54736 7.90732 7.73476 9.04103 7.16695 10.3003C6.59913 11.5595 6.28744 12.9191 6.25 14.2999V35.7582C6.3237 37.8405 7.0202 39.8529 8.24948 41.5353C9.47877 43.2177 11.1844 44.4927 13.1458 45.1957C14.4211 45.6804 15.7835 45.8933 17.1458 45.8207H32.8958C34.2759 45.8792 35.6539 45.6627 36.9495 45.1837C38.2451 44.7047 39.4325 43.9727 40.4426 43.0305C41.4526 42.0883 42.2652 40.9546 42.833 39.6953C43.4009 38.4361 43.7126 37.0765 43.75 35.6957V17.8415C43.76 16.73 43.5328 15.6291 43.0833 14.6124ZM33 31.4457L27.4583 37.0082C27.1394 37.3185 26.7648 37.5658 26.3542 37.7374C26.075 37.8624 25.7833 37.9388 25.4792 37.9665C25.2049 38.0291 24.9201 38.0291 24.6458 37.9665C24.3434 37.9398 24.0476 37.8623 23.7708 37.7374C23.3602 37.5658 22.9856 37.3185 22.6667 37.0082L17.125 31.4457C16.7837 31.0472 16.6053 30.5345 16.6256 30.0102C16.6459 29.4859 16.8632 28.9885 17.2342 28.6175C17.6053 28.2464 18.1026 28.0291 18.627 28.0088C19.1513 27.9886 19.664 28.1669 20.0625 28.5082L22.9792 31.4249V21.8207C22.9792 21.2682 23.1987 20.7383 23.5894 20.3476C23.9801 19.9569 24.51 19.7374 25.0625 19.7374C25.615 19.7374 26.1449 19.9569 26.5356 20.3476C26.9263 20.7383 27.1458 21.2682 27.1458 21.8207V31.4249L30.0625 28.5082C30.461 28.1669 30.9737 27.9886 31.498 28.0088C32.0224 28.0291 32.5197 28.2464 32.8908 28.6175C33.2618 28.9885 33.4791 29.4859 33.4994 30.0102C33.5197 30.5345 33.3413 31.0472 33 31.4457ZM33.4583 15.4249C33.1611 15.4276 32.8663 15.3715 32.5909 15.2596C32.3155 15.1478 32.065 14.9825 31.8539 14.7733C31.6427 14.5641 31.4751 14.3151 31.3607 14.0408C31.2464 13.7664 31.1875 13.4721 31.1875 13.1749V7.65405C31.7708 7.97071 32.3333 8.32488 32.875 8.71655L39.125 14.404C39.4722 14.6971 39.7639 15.0374 40 15.4249H33.4583Z" fill="#515151"/>
</svg>
