<svg width="24" height="25" viewBox="0 0 24 25" fill="none" xmlns="http://www.w3.org/2000/svg">
<path d="M21.8207 11.93C21.7377 11.811 19.7587 8.986 17.0277 7.055C15.6117 6.052 13.8257 5.5 11.9997 5.5C10.1737 5.5 8.3887 6.052 6.9697 7.055C4.2387 8.986 2.2617 11.811 2.1787 11.93C2.06235 12.0975 2 12.2966 2 12.5005C2 12.7044 2.06235 12.9035 2.1787 13.071C2.2617 13.19 4.2387 16.015 6.9697 17.946C8.3887 18.948 10.1747 19.5 11.9997 19.5C13.8247 19.5 15.6117 18.948 17.0277 17.945C19.7587 16.014 21.7377 13.189 21.8207 13.07C21.9368 12.9026 21.9991 12.7037 21.9991 12.5C21.9991 12.2963 21.9368 12.0974 21.8207 11.93ZM11.9997 16C10.0657 16 8.4997 14.43 8.4997 12.5C8.4997 10.566 10.0657 9 11.9997 9C13.9297 9 15.4997 10.566 15.4997 12.5C15.4997 14.43 13.9297 16 11.9997 16ZM13.9997 12.5C13.9997 13.602 13.1017 14.5 11.9997 14.5C11.6041 14.5 11.2175 14.3827 10.8886 14.1629C10.5597 13.9432 10.3033 13.6308 10.1519 13.2654C10.0006 12.8999 9.96096 12.4978 10.0381 12.1098C10.1153 11.7219 10.3058 11.3655 10.5855 11.0858C10.8652 10.8061 11.2216 10.6156 11.6095 10.5384C11.9975 10.4613 12.3996 10.5009 12.7651 10.6522C13.1305 10.8036 13.4429 11.06 13.6626 11.3889C13.8824 11.7178 13.9997 12.1044 13.9997 12.5Z" fill="#63616C"/>
</svg>
