<svg width="24" height="25" viewBox="0 0 24 25" fill="none" xmlns="http://www.w3.org/2000/svg">
<path d="M12 8.5H4C3.46957 8.5 2.96086 8.71071 2.58579 9.08579C2.21071 9.46086 2 9.96957 2 10.5V14.5C2 15.0304 2.21071 15.5391 2.58579 15.9142C2.96086 16.2893 3.46957 16.5 4 16.5H5V20.5C5 20.7652 5.10536 21.0196 5.29289 21.2071C5.48043 21.3946 5.73478 21.5 6 21.5H8C8.26522 21.5 8.51957 21.3946 8.70711 21.2071C8.89464 21.0196 9 20.7652 9 20.5V16.5H12L17 20.5V4.5L12 8.5ZM21.5 12.5C21.5 14.21 20.54 15.76 19 16.5V8.5C20.53 9.25 21.5 10.8 21.5 12.5Z" fill="white"/>
</svg>
