<svg width="32" height="32" viewBox="0 0 32 32" fill="none" xmlns="http://www.w3.org/2000/svg">
<path d="M16 23.2C15.1955 23.2002 14.4205 22.8973 13.8292 22.3517C13.238 21.8062 12.874 21.0579 12.8096 20.256C10.6755 19.5006 8.87688 18.0156 7.73124 16.063C6.5856 14.1104 6.1666 11.8159 6.5482 9.58443C6.92981 7.35298 8.08748 5.32808 9.81687 3.86718C11.5463 2.40627 13.7362 1.6033 16 1.60001C18.4078 1.59966 20.7279 2.50415 22.5001 4.13413C24.2723 5.76411 25.3674 8.00055 25.568 10.4C25.5747 10.5041 25.5597 10.6084 25.5238 10.7064C25.488 10.8043 25.4323 10.8938 25.36 10.969C25.2878 11.0442 25.2007 11.1036 25.1043 11.1434C25.0079 11.1832 24.9043 11.2024 24.8 11.2C24.5857 11.1946 24.381 11.1098 24.2258 10.9619C24.0705 10.8141 23.9758 10.6138 23.96 10.4C23.8175 8.98534 23.3006 7.63421 22.4624 6.48572C21.6242 5.33723 20.4951 4.43287 19.1913 3.86575C17.8874 3.29862 16.456 3.08923 15.0444 3.25912C13.6327 3.42901 12.2919 3.97205 11.1599 4.83232C10.0278 5.6926 9.14551 6.83904 8.60377 8.15361C8.06202 9.46817 7.8804 10.9034 8.07762 12.3115C8.27483 13.7195 8.84375 15.0496 9.72581 16.1648C10.6079 17.2799 11.7712 18.1398 13.096 18.656C13.3371 18.1351 13.7138 17.6887 14.1867 17.3634C14.6596 17.0382 15.2113 16.8461 15.7839 16.8073C16.3565 16.7685 16.9291 16.8845 17.4415 17.143C17.9539 17.4016 18.3874 17.7932 18.6965 18.2768C19.0055 18.7604 19.1789 19.3183 19.1983 19.8919C19.2176 20.4655 19.0824 21.0338 18.8067 21.5372C18.531 22.0406 18.1249 22.4606 17.6312 22.7531C17.1374 23.0457 16.574 23.2 16 23.2ZM8.0144 19.2H8.16C8.784 19.8096 9.4768 20.3472 10.2272 20.8H8.0144C7.1168 20.8 6.4 21.5152 6.4 22.4C6.4 24.4944 7.3952 26.0544 9.0768 27.1248C10.7888 28.2176 13.224 28.8 16 28.8C18.776 28.8 21.2112 28.2176 22.9232 27.1248C24.6032 26.0528 25.6 24.496 25.6 22.4C25.6 21.9757 25.4314 21.5687 25.1314 21.2686C24.8313 20.9686 24.4244 20.8 24 20.8H20.7344C20.8239 20.2704 20.8239 19.7296 20.7344 19.2H24C24.8487 19.2 25.6626 19.5371 26.2627 20.1373C26.8629 20.7374 27.2 21.5513 27.2 22.4C27.2 25.1056 25.8672 27.1456 23.784 28.4752C21.7328 29.7824 18.968 30.4 16 30.4C13.032 30.4 10.2672 29.7824 8.216 28.4752C6.1328 27.1472 4.8 25.104 4.8 22.4C4.8 20.6192 6.2448 19.2 8.0144 19.2ZM22.4 11.2C22.4004 12.2826 22.1261 13.3476 21.6028 14.2954C21.0795 15.2432 20.3244 16.0427 19.408 16.6192C18.9809 16.1885 18.4759 15.8427 17.92 15.6C18.9307 15.1589 19.7587 14.3833 20.2647 13.4035C20.7708 12.4237 20.9241 11.2995 20.6988 10.22C20.4735 9.14055 19.8833 8.17156 19.0276 7.476C18.1719 6.78044 17.1028 6.40073 16 6.40073C14.8973 6.40073 13.8281 6.78044 12.9724 7.476C12.1167 8.17156 11.5266 9.14055 11.3013 10.22C11.076 11.2995 11.2292 12.4237 11.7353 13.4035C12.2413 14.3833 13.0693 15.1589 14.08 15.6C13.52 15.8448 13.016 16.192 12.592 16.6192C11.3767 15.8549 10.4536 14.7042 9.9712 13.352C9.7251 12.6612 9.59954 11.9333 9.6 11.2C9.6 9.50262 10.2743 7.87476 11.4745 6.67452C12.6748 5.47429 14.3026 4.80001 16 4.80001C17.6974 4.80001 19.3253 5.47429 20.5255 6.67452C21.7257 7.87476 22.4 9.50262 22.4 11.2Z" fill="white"/>
</svg>
