<svg width="24" height="24" viewBox="0 0 24 24" fill="none" xmlns="http://www.w3.org/2000/svg">
<path fill-rule="evenodd" clip-rule="evenodd" d="M22 12C22 17.523 17.523 22 12 22C6.477 22 2 17.523 2 12C2 6.477 6.477 2 12 2C17.523 2 22 6.477 22 12ZM5.46 11.083C5.64578 9.47639 6.41589 7.99419 7.6237 6.91859C8.83151 5.843 10.3927 5.24911 12.01 5.25C13.0243 5.24949 14.025 5.48313 14.9343 5.93271C15.8435 6.38229 16.6366 7.03568 17.252 7.842C17.3728 8.00007 17.4259 8.19965 17.3995 8.39685C17.3732 8.59404 17.2696 8.77269 17.1115 8.8935C16.9534 9.01431 16.7538 9.06737 16.5567 9.04102C16.3595 9.01467 16.1808 8.91107 16.06 8.753C15.5847 8.12988 14.9719 7.62492 14.2694 7.27749C13.5669 6.93007 12.7937 6.74954 12.01 6.75C10.7906 6.74914 9.61142 7.18606 8.68699 7.98128C7.76257 8.7765 7.15435 9.87716 6.973 11.083H7.337C7.48545 11.0829 7.63057 11.1269 7.754 11.2094C7.87743 11.2919 7.97361 11.4091 8.03037 11.5463C8.08712 11.6834 8.10189 11.8344 8.07281 11.9799C8.04373 12.1255 7.9721 12.2592 7.867 12.364L6.698 13.531C6.55737 13.6715 6.36675 13.7503 6.168 13.7503C5.96925 13.7503 5.77863 13.6715 5.638 13.531L4.47 12.364C4.36524 12.2591 4.29392 12.1255 4.26503 11.9801C4.23615 11.8347 4.251 11.684 4.30771 11.5471C4.36442 11.4101 4.46045 11.293 4.58367 11.2106C4.70688 11.1282 4.85176 11.0841 5 11.084L5.46 11.083ZM18.362 10.469C18.2214 10.3285 18.0308 10.2497 17.832 10.2497C17.6333 10.2497 17.4426 10.3285 17.302 10.469L16.134 11.636C16.0292 11.7409 15.9579 11.8745 15.929 12.0199C15.9002 12.1653 15.915 12.316 15.9717 12.4529C16.0284 12.5899 16.1245 12.707 16.2477 12.7894C16.3709 12.8718 16.5158 12.9159 16.664 12.916H17.027C16.8459 14.1218 16.2379 15.2226 15.3137 16.018C14.3894 16.8134 13.2104 17.2506 11.991 17.25C11.2106 17.2514 10.4404 17.0729 9.7401 16.7285C9.03982 16.3841 8.4283 15.883 7.953 15.264C7.89285 15.186 7.81793 15.1206 7.73252 15.0715C7.6471 15.0225 7.55285 14.9908 7.45517 14.9781C7.35748 14.9655 7.25826 14.9722 7.16318 14.9979C7.06809 15.0237 6.97901 15.0679 6.901 15.128C6.82299 15.1881 6.7576 15.2631 6.70855 15.3485C6.6595 15.4339 6.62775 15.5281 6.61512 15.6258C6.6025 15.7235 6.60923 15.8227 6.63495 15.9178C6.66066 16.0129 6.70485 16.102 6.765 16.18C7.38045 16.9807 8.17195 17.629 9.07819 18.0746C9.98444 18.5203 10.9811 18.7514 11.991 18.75C13.6081 18.7506 15.1691 18.1566 16.3767 17.0811C17.5843 16.0055 18.3542 14.5234 18.54 12.917H19C19.1484 12.9171 19.2936 12.8731 19.417 12.7906C19.5404 12.7081 19.6366 12.5909 19.6934 12.4537C19.7501 12.3166 19.7649 12.1656 19.7358 12.0201C19.7067 11.8745 19.6351 11.7408 19.53 11.636L18.362 10.469Z" fill="#674B00"/>
</svg>
