<svg width="24" height="24" viewBox="0 0 24 24" fill="none" xmlns="http://www.w3.org/2000/svg">
<path d="M12.5 2C15.2848 2 17.9555 3.10625 19.9246 5.07538C21.8938 7.04451 23 9.71523 23 12.5C23 15.2848 21.8938 17.9555 19.9246 19.9246C17.9555 21.8938 15.2848 23 12.5 23C9.71523 23 7.04451 21.8938 5.07538 19.9246C3.10625 17.9555 2 15.2848 2 12.5C2 9.71523 3.10625 7.04451 5.07538 5.07538C7.04451 3.10625 9.71523 2 12.5 2ZM11.192 14.5715L8.8595 12.2375C8.77588 12.1539 8.67661 12.0876 8.56736 12.0423C8.4581 11.997 8.34101 11.9737 8.22275 11.9737C8.10449 11.9737 7.9874 11.997 7.87814 12.0423C7.76889 12.0876 7.66962 12.1539 7.586 12.2375C7.41712 12.4064 7.32225 12.6354 7.32225 12.8743C7.32225 13.1131 7.41712 13.3421 7.586 13.511L10.556 16.481C10.6394 16.565 10.7386 16.6317 10.8479 16.6773C10.9571 16.7228 11.0744 16.7462 11.1927 16.7462C11.3111 16.7462 11.4284 16.7228 11.5376 16.6773C11.6469 16.6317 11.7461 16.565 11.8295 16.481L17.9795 10.3295C18.0642 10.2462 18.1316 10.147 18.1778 10.0375C18.224 9.92809 18.2481 9.81057 18.2487 9.69177C18.2492 9.57297 18.2262 9.45523 18.1811 9.34535C18.1359 9.23547 18.0694 9.13562 17.9854 9.05156C17.9015 8.96751 17.8017 8.9009 17.6919 8.8556C17.5821 8.81029 17.4644 8.78718 17.3455 8.78759C17.2267 8.788 17.1092 8.81193 16.9997 8.858C16.8902 8.90407 16.7909 8.97136 16.7075 9.056L11.192 14.5715Z" fill="#026937"/>
</svg>
