<svg width="24" height="25" viewBox="0 0 24 25" fill="none" xmlns="http://www.w3.org/2000/svg">
<path d="M2.625 8.75H4.5V16.25H2.625C1.59082 16.25 0.75 15.4092 0.75 14.375V10.625C0.75 9.59082 1.59082 8.75 2.625 8.75ZM21.375 8.75H19.5V16.25H21.375C22.4092 16.25 23.25 15.4092 23.25 14.375V10.625C23.25 9.59082 22.4092 8.75 21.375 8.75ZM12 4.25C8.69165 4.25 6 6.94165 6 10.25V14.75C6 18.0583 8.69165 20.75 12 20.75C15.3083 20.75 18 18.0583 18 14.75V10.25C18 6.94165 15.3083 4.25 12 4.25ZM12 1.25C7.85229 1.25 4.19971 3.63477 2.50488 7.25732C2.54224 7.25 2.58765 7.25 2.625 7.25H4.19971C5.76782 4.51221 8.69971 2.75 12 2.75C15.3003 2.75 18.2322 4.51221 19.8003 7.25H21.375C21.4124 7.25 21.4578 7.25 21.4951 7.25732C19.8003 3.63477 16.1477 1.25 12 1.25ZM21.375 17.75H19.8003C18.2322 20.4878 15.3003 22.25 12 22.25H11.25V23.75H12C16.1477 23.75 19.7922 21.3652 21.4951 17.7427C21.4578 17.75 21.4124 17.75 21.375 17.75Z" fill="#0A3F69"/>
</svg>
