<svg width="18" height="18" viewBox="0 0 18 18" fill="none" xmlns="http://www.w3.org/2000/svg">
<path d="M11.8267 5.85585C11.4438 5.91737 9.27407 6.28103 9.13728 6.28103C8.99996 6.28103 8.99996 6.28103 8.99996 6.28103C8.99996 6.28103 8.99996 6.28103 8.86264 6.28103C8.72532 6.28103 6.55607 5.91737 6.17318 5.85585C5.51509 5.74929 4.96578 5.93551 4.77351 6.01514C3.96601 6.35022 4.23738 7.13357 4.41646 7.42361C4.66421 7.82242 5.60408 8.86941 6.53023 8.99189C7.73764 9.15066 8.78023 8.24756 8.99996 8.24756C9.21912 8.24756 10.2623 9.15066 11.4697 8.99189C12.3958 8.86941 13.3363 7.82238 13.5835 7.42361C13.7625 7.13357 14.0339 6.35025 13.2264 6.01514C13.0336 5.93548 12.4848 5.74926 11.8267 5.85585ZM6.49177 7.76909C6.10175 7.39172 6.16658 7.01267 6.62143 6.9819C7.07737 6.95005 7.84532 7.14011 7.85794 7.39168C7.89036 8.02123 6.88179 8.14758 6.49177 7.76909ZM11.5081 7.76909C11.1176 8.14758 10.109 8.02123 10.142 7.39172C10.1546 7.14014 10.9226 6.95005 11.3774 6.98194C11.8333 7.0127 11.8982 7.39172 11.5081 7.76909Z" fill="#747474"/>
<path d="M14.1592 4.07482C14.1592 3.89795 13.9757 3.54417 13.6467 3.47277C13.1715 0.673453 10.426 0 9 0C7.57396 0 4.8285 0.673453 4.3528 3.47277C4.02321 3.54417 3.84082 3.89795 3.84082 4.07482C3.84082 4.25225 3.84082 5.24377 3.84082 5.24377H14.1592C14.1592 5.24377 14.1592 4.25225 14.1592 4.07482Z" fill="#747474"/>
<path d="M12.5409 13.4377C12.5409 12.7274 12.3201 11.9507 11.6186 11.9507H6.38083C5.67989 11.9507 5.45854 12.7274 5.45854 13.4377C5.45854 13.6063 2.17639 14.4512 2.17639 16.3436C2.17639 16.7836 3.24592 17.9997 8.96264 17.9997H9.03678C14.7541 17.9997 15.8236 16.7835 15.8236 16.3436C15.8236 14.4512 12.5409 13.6063 12.5409 13.4377Z" fill="#747474"/>
</svg>
