<svg width="18" height="18" viewBox="0 0 18 18" fill="none" xmlns="http://www.w3.org/2000/svg">
<path d="M14.2012 10.4587L13.6987 7.72275C13.4812 6.54075 13.3725 5.94975 12.9427 5.60025C12.513 5.25075 11.895 5.25 10.6597 5.25H7.34025C6.105 5.25 5.48775 5.25 5.05725 5.60025C4.6275 5.94975 4.51875 6.54075 4.30125 7.72275L3.79875 10.4587C3.34875 12.912 3.123 14.139 3.81675 14.9437C4.5105 15.75 5.793 15.75 8.3565 15.75H9.6435C12.207 15.75 13.4895 15.75 14.1832 14.9445C14.877 14.139 14.652 12.912 14.2012 10.4595V10.4587Z" fill="white"/>
<path d="M9 7.875V12.75M7.125 11.25L9 13.125L10.875 11.25" stroke="#084E88" stroke-linecap="round" stroke-linejoin="round"/>
<path d="M15.75 8.25C15.8659 8.19219 15.9709 8.11481 16.0605 8.02125C16.5 7.56675 16.5 6.8325 16.5 5.364C16.5 3.8955 16.5 3.162 16.0605 2.706C15.621 2.25 14.9145 2.25 13.5 2.25H4.5C3.0855 2.25 2.379 2.25 1.9395 2.706C1.5 3.162 1.5 3.89625 1.5 5.364C1.5 6.83175 1.5 7.566 1.9395 8.02125C2.0295 8.11525 2.133 8.1915 2.25 8.25" stroke="white" stroke-width="1.5" stroke-linecap="round"/>
</svg>
